<svg width="89" height="24" viewBox="0 0 89 24" fill="none" xmlns="http://www.w3.org/2000/svg">
<g clip-path="url(#clip0_709_13732)">
<path d="M51.8623 6.54412L56.9885 4.63542L51.8623 2.67218V0L60.6423 3.54473V5.7261L51.8623 9.27083V6.54412Z" fill="#A5A5BA"/>
<path d="M3.38113 23.4499C1.52696 23.4499 0 22.5228 0 20.4505V20.3414C0 17.8329 2.18137 16.9603 4.85355 16.9603H6.10784V16.4695C6.10784 15.4334 5.67157 14.8335 4.58088 14.8335C3.59926 14.8335 3.10846 15.3788 3.05392 16.1423H0.327206C0.545343 13.8519 2.34498 12.7612 4.74449 12.7612C7.19853 12.7612 8.99816 13.7973 8.99816 16.3604V23.2318H6.21691V22.032C5.67157 22.7955 4.74449 23.4499 3.38113 23.4499ZM6.10784 19.8506V18.869H4.96262C3.54473 18.869 2.83578 19.2508 2.83578 20.1778V20.2869C2.83578 20.9959 3.27206 21.4867 4.25368 21.4867C5.23529 21.4321 6.10784 20.8868 6.10784 19.8506ZM15.4877 23.4499C12.652 23.4499 10.5797 21.7048 10.5797 18.2146V18.051C10.5797 14.5608 12.761 12.7066 15.4877 12.7066C17.8327 12.7066 19.7414 13.9064 19.9596 16.5786H17.2328C17.0692 15.597 16.5239 14.9425 15.5423 14.9425C14.3425 14.9425 13.47 15.9242 13.47 17.9419V18.2691C13.47 20.3414 14.2335 21.2685 15.5423 21.2685C16.5239 21.2685 17.2328 20.5596 17.3964 19.4144H20.0141C19.8505 21.8139 18.269 23.4499 15.4877 23.4499ZM26.1765 23.4499C23.3407 23.4499 21.2684 21.7048 21.2684 18.2146V18.051C21.2684 14.5608 23.4498 12.7066 26.1765 12.7066C28.5214 12.7066 30.4301 13.9064 30.6483 16.5786H27.9216C27.758 15.597 27.2126 14.9425 26.231 14.9425C25.0312 14.9425 24.1587 15.9242 24.1587 17.9419V18.2691C24.1587 20.3414 24.9222 21.2685 26.231 21.2685C27.2126 21.2685 27.9216 20.5596 28.0852 19.4144H30.7028C30.5392 21.8139 28.9577 23.4499 26.1765 23.4499ZM36.9197 23.4499C33.9749 23.4499 31.9571 21.7048 31.9571 18.2691V18.051C31.9571 14.6153 34.0839 12.7066 36.8652 12.7066C39.4283 12.7066 41.5551 14.1245 41.5551 17.5602V18.8145H34.8474C34.9565 20.6686 35.7745 21.3776 36.9743 21.3776C38.065 21.3776 38.6648 20.7777 38.883 20.0688H41.5551C41.2279 21.9775 39.5919 23.4499 36.9197 23.4499ZM34.902 16.9058H38.7194C38.6648 15.3788 37.9559 14.7244 36.8107 14.7244C35.9381 14.7789 35.1201 15.2697 34.902 16.9058ZM43.3002 12.9793H46.1906V14.5063C46.6814 13.5246 47.7175 12.7612 49.299 12.7612C51.1532 12.7612 52.4075 13.9064 52.4075 16.3604V23.2318H49.5172V16.7967C49.5172 15.597 49.0264 15.0516 47.9902 15.0516C47.0086 15.0516 46.1906 15.6515 46.1906 16.9603V23.2318H43.3002V12.9793ZM57.6973 9.87085V12.9793H59.6605V15.1061H57.6973V19.9597C57.6973 20.7232 58.0245 21.1049 58.7335 21.1049C59.1697 21.1049 59.4424 21.0504 59.7151 20.9413V23.1772C59.3879 23.2863 58.788 23.3954 58.079 23.3954C55.8431 23.3954 54.807 22.3592 54.807 20.2869V15.1061H53.6072V12.9793H54.807V11.0706L57.6973 9.87085ZM70.4583 23.2318H67.6226V21.7048C67.1317 22.6864 66.1501 23.4499 64.6232 23.4499C62.769 23.4499 61.4056 22.3047 61.4056 19.9052V12.9793H64.296V19.5234C64.296 20.7232 64.7868 21.2685 65.7684 21.2685C66.75 21.2685 67.568 20.6141 67.568 19.3598V12.9793H70.4583V23.2318ZM72.5852 12.9793H75.4755V14.888C76.0754 13.5246 77.057 12.8702 78.584 12.8702V15.706C76.6207 15.706 75.4755 16.3059 75.4755 17.9965V23.2863H72.5852V12.9793ZM84.4191 23.4499C81.4743 23.4499 79.4565 21.7048 79.4565 18.2691V18.051C79.4565 14.6153 81.5833 12.7066 84.3646 12.7066C86.9277 12.7066 89.0545 14.1245 89.0545 17.5602V18.8145H82.4014C82.5104 20.6686 83.3284 21.3776 84.5282 21.3776C85.6189 21.3776 86.2188 20.7777 86.4369 20.0688H89.1091C88.6728 21.9775 87.0913 23.4499 84.4191 23.4499ZM82.3468 16.9058H86.2188C86.1642 15.3788 85.4553 14.7244 84.3101 14.7244C83.4375 14.7789 82.6195 15.2697 82.3468 16.9058Z" fill="#C0C0CF"/>
</g>
<defs>
<clipPath id="clip0_709_13732">
<rect width="89" height="23.4498" fill="white"/>
</clipPath>
</defs>
</svg>
