<svg width="108" height="17" viewBox="0 0 108 17" fill="none" xmlns="http://www.w3.org/2000/svg">
<path d="M7.97612 4.56022L10.2515 2.34627C9.36401 1.80457 8.14537 1.55625 6.62631 1.55625H5.85726H2.27436L0 13.4013H3.57973H4.53708C9.80724 13.4013 11.9145 9.66811 11.9145 5.78297C11.9145 4.77396 11.7008 3.96718 11.2861 3.33956L7.97612 4.56022ZM4.78673 10.5839H4.11712L5.32094 4.33809H6.2603C7.68204 4.33809 8.20038 5.19098 8.20038 6.35819C8.20038 8.71778 6.90982 10.5839 4.78673 10.5839ZM102.275 13.7052C99.6142 13.7052 98.311 12.5505 98.311 10.2444C98.311 7.68153 99.5656 4.20293 103.985 4.20293C106.629 4.20293 107.95 5.3911 107.95 7.66686C107.95 10.28 106.694 13.7052 102.275 13.7052ZM103.548 6.93552C102.176 6.93552 101.807 9.05726 101.807 10.0076C101.807 10.7714 102.126 10.9904 102.746 10.9904C104.099 10.9904 104.452 8.86866 104.452 7.90471C104.452 7.15764 104.151 6.93552 103.548 6.93552ZM97.9406 7.64832C97.7576 7.59702 97.3916 7.54564 97.1229 7.54564C96.3697 7.54564 95.7657 8.31051 95.498 9.71767L94.7946 13.4006H91.383L93.0872 4.51129H95.6483L95.7329 5.69632C96.5199 4.71351 97.1377 4.20324 98.0908 4.20324C98.5277 4.20324 98.7604 4.23677 98.88 4.2724L97.9406 7.64832ZM85.7738 10.1096C85.7569 10.1935 85.7421 10.3475 85.7421 10.4313C85.7421 10.9751 86.1102 11.1606 87.0792 11.1606C87.9509 11.1606 89.1886 10.9405 89.909 10.687V13.1807C88.9886 13.5201 87.5479 13.7056 86.3927 13.7056C83.6814 13.7056 82.3761 12.9585 82.3761 10.4659C82.3761 8.01933 83.4974 4.20334 87.8155 4.20334C90.5616 4.20334 91.3825 5.46172 91.3825 6.78401C91.3825 8.49712 89.9238 9.95666 85.7738 10.1096ZM87.5648 6.54721C86.7777 6.54721 86.3271 7.20731 86.143 7.97218C87.6991 7.97218 88.1699 7.47973 88.1699 7.0711C88.1699 6.78401 87.916 6.54721 87.5648 6.54721ZM80.4712 13.4013H76.8693L77.724 8.92105H74.6774L73.8227 13.4013H70.226L72.5014 1.55625H76.1013L75.2814 5.78297H78.328L79.1479 1.55625H82.7445L80.4712 13.4013ZM67.3469 4.51055C65.8395 8.48056 64.5013 11.3818 63.1621 13.3852C61.2209 16.321 59.5125 17 57.7544 17C57.2361 17 56.6849 16.8617 56.4152 16.7265L56.9525 14.1647H58.1246C58.7096 14.1647 58.9603 13.9258 59.3454 13.4009C58.6927 11.0088 58.3743 7.66644 58.4081 4.51055H61.8398C61.77 5.95124 61.788 7.44536 61.8736 8.80223C61.8906 9.192 61.9212 9.56501 61.955 9.94011H61.9731C62.1233 9.58177 62.2894 9.22657 62.4417 8.83576C63.0108 7.42755 63.5641 5.81503 63.9301 4.51055H67.3469ZM56.6708 7.64832C56.4857 7.59702 56.1165 7.54564 55.85 7.54564C55.0957 7.54564 54.4938 8.31051 54.2241 9.71767L53.5248 13.4006H50.1069L51.8164 4.51129H54.3785L54.461 5.69632C55.247 4.71351 55.868 4.20324 56.8211 4.20324C57.2548 4.20324 57.4907 4.23677 57.606 4.2724L56.6708 7.64832ZM44.503 10.1096C44.4871 10.1935 44.4682 10.3475 44.4682 10.4313C44.4682 10.9751 44.8374 11.1606 45.8074 11.1606C46.678 11.1606 47.9157 10.9405 48.635 10.687V13.1807C47.7147 13.5201 46.276 13.7056 45.1219 13.7056C42.4096 13.7056 41.1042 12.9585 41.1042 10.4659C41.1042 8.01933 42.2245 4.20334 46.5437 4.20334C49.2887 4.20334 50.1065 5.46172 50.1065 6.78401C50.1065 8.49712 48.654 9.95666 44.5031 10.1096H44.503ZM46.2929 6.54721C45.508 6.54721 45.0532 7.20731 44.868 7.97218C46.4262 7.97218 46.8949 7.47973 46.8949 7.0711C46.8949 6.78401 46.6452 6.54721 46.2929 6.54721ZM41.7237 4.51055C40.5516 7.4967 39.2632 10.4147 37.6235 13.4009H33.4387C32.9034 10.5834 32.6686 7.61405 32.7363 4.51055H36.151C36.0823 5.96905 36.1013 7.46317 36.1827 8.85357C36.2008 9.22658 36.2346 9.58177 36.2674 9.94011H36.2864C36.4356 9.58177 36.6017 9.22658 36.7529 8.85357C37.3379 7.39193 37.8732 5.80036 38.2773 4.51055H41.7237H41.7237ZM28.605 4.51055H31.9848L30.2753 13.4009H26.8617L28.0655 7.15722L28.605 4.51055ZM30.6267 3.76674C29.5076 3.76674 28.7861 3.03749 28.7861 2.03582C28.7861 0.72925 29.6906 0 30.8098 0C31.949 0 32.6536 0.72925 32.6536 1.71311C32.6536 3.03749 31.765 3.76674 30.6267 3.76674ZM15.5158 10.1096C15.4978 10.1935 15.482 10.3475 15.482 10.4313C15.482 10.9751 15.848 11.1606 16.8212 11.1606C17.6907 11.1606 18.9274 10.9405 19.6477 10.687V13.1807C18.7285 13.5201 17.2877 13.7056 16.1325 13.7056C13.4223 13.7056 12.117 12.9585 12.117 10.4659C12.117 8.01933 13.2372 4.20334 17.5574 4.20334C20.3004 4.20334 21.1192 5.46172 21.1192 6.78401C21.1192 8.49712 19.6657 9.95666 15.5158 10.1096ZM17.3057 6.54721C16.5197 6.54721 16.0669 7.20731 15.8839 7.97218C17.439 7.97218 17.9086 7.47973 17.9086 7.0711C17.9086 6.78401 17.6558 6.54721 17.3057 6.54721ZM24.9445 13.5359H21.6609L24.2304 1.33454L27.8112 0.00072925L24.9445 13.5359Z" fill="#C0C0CF"/>
</svg>
