<svg width="75" height="27" viewBox="0 0 75 27" fill="none" xmlns="http://www.w3.org/2000/svg">
<g clip-path="url(#clip0_1230_29028)">
<path d="M74.698 10.9712C64.7302 4.32938 51.7274 0.306641 37.5047 0.306641C23.2796 0.306641 10.2793 4.32938 0.311523 10.9712C10.2248 7.68372 21.8142 5.63893 37.5047 5.63893C53.1953 5.63893 64.7847 7.68372 74.698 10.9712ZM31.8018 14.4246C31.0703 14.4246 30.6959 15.0138 30.5967 15.7416C30.4901 16.5387 30.0711 19.3113 29.9768 20.0143C29.9198 20.4376 29.8901 20.8783 29.4809 21.059C29.0693 21.2397 28.5709 20.9625 28.1469 20.601L21.4274 14.8875C21.08 14.5868 20.635 14.4223 20.1752 14.4246C19.2255 14.4246 18.3081 15.0138 18.3081 16.4545V25.3763C18.3081 26.0744 18.8015 26.52 19.3892 26.52C20.0388 26.52 20.4579 26.0918 20.5496 25.463C20.5496 25.463 21.2414 21.21 21.3257 20.7322C21.4249 20.1827 21.5117 19.7494 22.0448 19.5861C22.5283 19.4351 22.9845 19.7148 23.6639 20.3089C24.3334 20.8907 30.0016 26.0051 30.0016 26.0051C30.4356 26.3715 30.7529 26.5175 31.3679 26.5175C31.9233 26.5175 32.9374 26.2923 32.9374 24.5891V15.6995C32.9374 14.8751 32.4241 14.4246 31.8018 14.4246M72.3622 23.9356C67.4205 24.9951 61.7696 23.8613 61.7696 20.3708C61.7696 17.7368 64.2194 16.6625 66.1485 16.509C68.1718 16.3481 69.7537 16.7714 70.572 17.6155C71.0803 18.1428 70.9365 18.8607 69.9397 18.9201C69.0198 18.9771 67.2916 19.0291 65.8559 19.0835C65.0376 19.1132 64.6037 19.5514 64.6037 20.1381C64.6037 20.601 64.9558 21.1333 65.8931 21.1382L72.3474 21.1704C73.4681 21.1729 74.0186 20.5466 74.0186 19.2618C74.0186 17.2244 72.1688 14.1349 66.7609 14.1349C61.8589 14.1349 58.3106 16.5733 58.3106 20.5565C58.3106 26.2056 66.6419 27.9336 72.7416 25.8294C73.3218 25.6313 73.8475 25.2179 73.6813 24.5718C73.5326 24.0024 73.0639 23.7846 72.3622 23.9356M15.0425 23.9356C10.1008 24.9951 4.44741 23.8613 4.44741 20.3708C4.44741 17.7368 6.8972 16.6625 8.82629 16.509C10.8546 16.3481 12.4365 16.7714 13.2498 17.6155C13.7606 18.1428 13.6168 18.8607 12.6175 18.9201C11.6976 18.9771 9.97184 19.0291 8.53371 19.0835C7.72041 19.1132 7.28153 19.5514 7.28153 20.1381C7.28153 20.601 7.63363 21.1333 8.5709 21.1382L15.0301 21.1704C16.1459 21.1729 16.6989 20.5466 16.6989 19.2618C16.6989 17.2244 14.8516 14.1349 9.43874 14.1349C4.53915 14.1349 0.993399 16.5733 0.993399 20.5565C0.993399 26.2056 9.32468 27.9336 15.4244 25.8294C16.0021 25.6313 16.5253 25.2179 16.3592 24.5718C16.2104 24.0024 15.7442 23.7846 15.0425 23.9356ZM53.3094 18.5043C53.4185 21.5838 53.7111 24.1386 53.7904 25.0322C53.897 26.1883 54.4946 26.52 55.0947 26.52C55.6699 26.52 56.2824 26.2155 56.3865 25.0421C56.4758 24.0569 56.7708 21.007 56.9122 17.9918C56.9196 17.8383 56.813 17.769 56.684 17.7938L53.4681 18.3136C53.3738 18.3334 53.3044 18.4077 53.3094 18.5043M55.1046 14.1325C53.6268 14.1325 53.2003 15.2861 53.2152 15.9965C53.2152 16.1302 53.2325 16.4917 53.2548 16.9447C53.2573 17.0462 53.3491 17.1427 53.473 17.1279L56.8279 16.5832C56.873 16.5773 56.9145 16.5552 56.9445 16.521C56.9746 16.4869 56.9913 16.443 56.9915 16.3976C57.0014 16.2416 57.0064 16.0782 57.0089 16.0015C57.0287 15.3232 56.5873 14.1325 55.1021 14.1325M50.1703 19.0464C49.052 19.0464 45.6005 19.0712 43.3887 19.0811C42.3175 19.0811 42.0498 19.6579 42.0498 20.1332C42.0498 20.5466 42.3374 21.0838 43.3391 21.1333C44.8616 21.2125 46.8006 21.3066 47.6957 21.3486C48.8983 21.4105 48.9156 22.0269 48.509 22.5616C47.6907 23.6212 45.6996 24.3193 43.6342 24.3193C40.9364 24.3193 37.9659 22.7844 37.9659 20.356C37.9659 18.0785 40.51 15.5658 48.0602 16.6229C48.7222 16.7219 49.3743 16.5981 49.5405 15.9866C49.714 15.3356 49.2925 14.9147 48.4321 14.6895C46.8767 14.2951 45.2759 14.1078 43.6714 14.1325C38.5883 14.1325 34.5119 16.556 34.5119 20.4698C34.5119 24.6485 38.5709 26.6933 43.6367 26.6933C49.2876 26.6933 52.0423 23.6212 52.0423 20.9352C52.0423 19.5687 51.3431 19.0464 50.1728 19.0464" fill="#C0C0CF"/>
</g>
<defs>
<clipPath id="clip0_1230_29028">
<rect width="75" height="27" fill="white"/>
</clipPath>
</defs>
</svg>
