<svg width="75" height="21" viewBox="0 0 75 21" fill="none" xmlns="http://www.w3.org/2000/svg">
<path d="M13.576 15.5129C13.8086 16.3961 14.1839 16.7376 14.8471 16.7376C15.5347 16.7376 15.8952 16.3229 15.8952 15.5129V0.474132H20.2022V15.5129C20.2022 17.6327 19.9283 18.5512 18.8578 19.6263C18.0862 20.401 16.6631 20.9999 14.8662 20.9999C13.4144 20.9999 12.0253 20.5175 11.1393 19.6264C10.3626 18.8451 9.93597 18.0427 9.2692 15.5127L6.62634 5.48705C6.39361 4.60383 6.01846 4.26245 5.35523 4.26245C4.66751 4.26245 4.30697 4.67702 4.30697 5.48705V20.5259H0V5.48705C0 3.36738 0.274056 2.44875 1.3446 1.37365C2.11585 0.599185 3.53911 0 5.3362 0C6.78794 0 8.17711 0.482578 9.06303 1.3735C9.83974 2.15478 10.2664 2.95725 10.9332 5.48719L13.576 15.5129Z" fill="#C0C0CF"/>
<path d="M70.5481 20.5259L65.5741 4.90371C65.5192 4.73125 65.4674 4.58486 65.3877 4.48722C65.251 4.32024 65.062 4.23252 64.8075 4.23252C64.5533 4.23252 64.3642 4.32024 64.2274 4.48722C64.1479 4.58471 64.0959 4.7311 64.0412 4.90371L59.0673 20.5259H54.6152L60.0484 3.46057C60.3314 2.57158 60.7361 1.81682 61.2495 1.31394C62.1307 0.451463 63.1691 0 64.8077 0C66.4463 0 67.4848 0.451463 68.3657 1.31379C68.8791 1.81682 69.2838 2.57143 69.567 3.46043L75 20.5258H70.5481V20.5259Z" fill="#C0C0CF"/>
<path d="M48.5354 20.5259C51.3571 20.5259 52.7334 19.9241 53.8208 18.8385C55.024 17.6376 55.5996 16.3236 55.5996 14.3619C55.5996 12.6285 54.9675 11.023 54.0051 10.0623C52.7469 8.80597 51.184 8.41007 48.6356 8.41007L45.0661 8.40992C43.7021 8.40992 43.1586 8.24442 42.7285 7.82022C42.4332 7.52922 42.2948 7.09643 42.2948 6.58629C42.2948 6.05897 42.4213 5.53816 42.7823 5.18242C43.1026 4.86667 43.5393 4.72177 44.3785 4.72177H54.6948V0.474132H45.1664C42.3447 0.474132 40.9685 1.07613 39.881 2.1616C38.6779 3.36249 38.1022 4.67628 38.1022 6.638C38.1022 8.3717 38.7343 9.97708 39.6967 10.9376C40.9551 12.1939 42.5178 12.59 45.0662 12.59L48.6359 12.5903C49.9998 12.5903 50.5433 12.7555 50.9734 13.1798C51.2687 13.471 51.4071 13.9036 51.4071 14.4138C51.4071 14.9411 51.2806 15.4619 50.9198 15.8177C50.5993 16.1334 50.1626 16.2783 49.3234 16.2783H38.6838L34.6031 3.46057C34.32 2.57158 33.9154 1.81682 33.4019 1.31394C32.5207 0.451463 31.4824 0 29.8438 0C28.2052 0 27.1667 0.451463 26.2859 1.31379C25.7723 1.81682 25.3678 2.57143 25.0848 3.46043L19.6516 20.5258H24.1035L29.0775 4.90357C29.1324 4.7311 29.1842 4.58471 29.2639 4.48707C29.4006 4.32009 29.5898 4.23237 29.8441 4.23237C30.0984 4.23237 30.2874 4.32009 30.4242 4.48707C30.5039 4.58456 30.5557 4.73095 30.6105 4.90357L35.5845 20.5258H48.5354V20.5259Z" fill="#C0C0CF"/>
</svg>
