<svg width="292" height="108" viewBox="0 0 292 108" fill="none" xmlns="http://www.w3.org/2000/svg">
<path d="M130.598 90.3024V97.0544H119.15V90.3024H115.816V107.361H119.15V100.002H130.598V107.361H133.936V90.3024H130.598Z" fill="#C0C0CF"/>
<path d="M140.466 90.3024V107.361H156.041V104.492H143.801V99.9944H154.106V97.1264H143.801V93.1678H155.757V90.3024H140.466Z" fill="#C0C0CF"/>
<path d="M167.786 90.3024L159.39 107.361H162.937L164.74 103.43H174.566L176.354 107.361H179.858L171.588 90.3024H167.786ZM169.688 92.9838L173.262 100.581H166.113L169.688 92.9838Z" fill="#C0C0CF"/>
<path d="M184.57 90.3024V107.361H200.25V104.396H187.903V90.3024H184.57Z" fill="#C0C0CF"/>
<path d="M199.067 90.3024V93.1678H206.705V107.361H210.036V93.1678H217.657V90.3024H199.067Z" fill="#C0C0CF"/>
<path d="M237.425 90.3024V97.0544H225.971V90.3024H222.643V107.361H225.971V100.002H237.425V107.361H240.757V90.3024H237.425Z" fill="#C0C0CF"/>
<path d="M44.388 57.3102C44.388 46.5689 36.7293 41.5409 26.5413 41.5409C16.3747 41.5409 8.70533 46.5689 8.70533 57.3102C8.70533 69.9236 18.208 73.3502 26.5413 73.3502C34.88 73.3502 44.388 69.9236 44.388 57.3102ZM26.5413 34.0796C46.1587 34.0796 53.0893 45.6036 53.0893 57.8089C53.0893 67.0462 47.6347 80.8342 26.5413 80.8342C5.448 80.8342 0 67.0462 0 57.8089C0 45.6036 6.92533 34.0796 26.5413 34.0796" fill="#C0C0CF"/>
<path d="M115.761 35.1745H124.475V79.7385H115.761V35.1745Z" fill="#C0C0CF"/>
<path d="M177.06 57.3102C177.06 46.5689 169.39 41.5409 159.223 41.5409C149.051 41.5409 141.392 46.5689 141.392 57.3102C141.392 69.9236 150.89 73.3502 159.223 73.3502C167.572 73.3502 177.06 69.9236 177.06 57.3102ZM159.223 34.0796C178.834 34.0796 185.754 45.6036 185.754 57.8089C185.754 67.0462 180.307 80.8342 159.223 80.8342C138.14 80.8342 132.692 67.0462 132.692 57.8089C132.692 45.6036 139.623 34.0796 159.223 34.0796" fill="#C0C0CF"/>
<path d="M193.419 35.1743H202.612L232.396 67.3596V35.1743H240.746V79.7383H232.763L201.768 46.3996V79.7383H193.419V35.1743Z" fill="#C0C0CF"/>
<path d="M93.2204 61.6033C99.783 61.2259 105.666 56.6886 105.666 48.4766C105.666 37.5659 98.0497 35.1739 87.5284 35.1739H60.7417V79.7393H69.4364V42.4179H86.2257C93.3537 42.4179 96.9564 43.4433 96.9564 48.6513C96.9564 53.9313 93.3537 54.9713 86.2257 54.9713H78.115L96.163 79.7393H106.883L93.2204 61.6033Z" fill="#C0C0CF"/>
<path d="M249.902 16.2184C244.938 17.3171 235.855 18.5397 229.898 19.5931C226.831 20.1397 224.365 20.7144 224.035 20.9424C227.761 21.4571 235.026 20.9424 241.101 22.2224C243.906 22.8184 250.778 23.8397 251.805 31.1451C252.299 43.3277 252.878 60.7291 253.613 70.2571C256.747 52.3211 257.885 35.6064 260.453 34.8344C264.454 33.5971 285.83 51.0237 291.262 55.3664C270.581 30.6104 265.633 27.6077 265.895 24.4544C266.415 18.4237 281.917 15.1064 289.689 12.2091C284.491 11.6637 273.357 13.8784 266.415 14.3411C263.025 14.5917 260.61 14.5597 260.35 12.5237C259.798 8.43708 259.443 4.16908 258.725 0.109078C257.023 -1.09226 256.174 7.92108 254.647 12.6624C253.942 14.9851 252.803 15.3531 249.902 16.2184Z" fill="#C0C0CF"/>
</svg>
