<svg width="91" height="25" viewBox="0 0 91 25" fill="none" xmlns="http://www.w3.org/2000/svg">
<g clip-path="url(#clip0_709_13683)">
<path d="M29.5767 5.56336C28.6211 5.17131 27.6165 4.90178 26.7099 4.90178C25.3867 4.90178 24.7249 5.19581 24.7249 5.68587C24.7249 7.15605 30.6304 5.97991 30.6304 9.09179C30.6304 10.3905 29.4297 11.3706 26.9794 11.3706C25.534 11.3706 24.4066 11.0765 23.108 10.3659L23.647 9.21431C24.7742 9.85138 25.8275 10.1209 26.9794 10.1209C28.4251 10.1209 29.1847 9.70437 29.1847 9.09179C29.1847 7.4991 23.2795 8.67524 23.2795 5.75938C23.2795 4.50973 24.4799 3.62762 26.6609 3.62762C27.9595 3.62762 29.0622 3.92166 30.0913 4.43622L29.5767 5.56336ZM36.1435 11.4196C33.791 11.4196 31.8308 9.85138 31.8308 7.49909C31.8308 5.17131 33.791 3.57861 36.1435 3.57861C38.5203 3.57861 40.4316 5.17131 40.4316 7.49909C40.4561 9.85138 38.5203 11.4196 36.1435 11.4196ZM36.1435 4.85277C34.4283 4.85277 33.2522 6.00441 33.2522 7.49909C33.2522 9.01828 34.3793 10.1699 36.1435 10.1699C37.9078 10.1699 39.0104 9.01828 39.0104 7.49909C39.0349 6.00441 37.9078 4.85277 36.1435 4.85277ZM46.0672 11.4196C43.5922 11.4196 41.7302 9.85138 41.7302 7.49909C41.7302 5.19581 43.6169 3.57861 46.0672 3.57861C47.5374 3.57861 48.5666 3.99516 49.5222 4.68125L48.7871 5.75938C48.101 5.24482 47.2434 4.85277 46.1165 4.85277C44.3033 4.85277 43.1761 6.00441 43.1761 7.47459C43.1761 8.99378 44.3033 10.1209 46.1165 10.1209C47.2436 10.1209 48.1502 9.75337 48.8363 9.23881L49.5714 10.3169C48.6401 11.0275 47.5374 11.4196 46.0672 11.4196ZM50.9678 3.84815H52.438V11.199H50.9678V3.84815ZM54.3983 11.199V3.84815H61.2591V5.0733H55.8684V6.78851H60.0339V8.01366H55.8684V9.9739H61.5041V11.199H54.3983ZM66.6497 5.0733V11.199H65.1796V5.0733H62.2392V3.84815H69.5901V5.0733H66.6497ZM70.8153 11.199V3.84815H77.4311V5.0733H72.0404V6.78851H76.2059V8.01366H72.0404V9.9739H77.6761V11.199H70.8153ZM27.3225 19.9711C28.0821 19.9711 28.9152 19.7996 29.4052 19.5301V17.3248H30.8754V20.2407C29.8953 20.8777 28.5966 21.2453 27.3225 21.2453C24.8474 21.2453 22.9609 19.6771 22.9609 17.3248C22.9609 15.0215 24.8474 13.4288 27.2977 13.4288C28.7191 13.4288 29.797 13.8211 30.7281 14.5315L29.993 15.6096C29.307 15.095 28.4494 14.7275 27.3225 14.7275C25.5092 14.6785 24.3821 15.8546 24.3821 17.3248C24.3821 18.893 25.5092 19.9711 27.3225 19.9711ZM32.5906 21.0003V13.6494H39.4514V14.8745H34.0608V16.5897H38.2263V17.8149H34.0608V19.7751H39.6965V21.0003H32.5906ZM42.1468 21.0003H40.9216V13.6494H42.3183L47.1454 19.236C47.0719 17.8394 47.0229 16.7122 47.0229 15.6096V13.6494H48.493V21.0003H47.0229L42.2203 15.4626L42.1468 15.4871C42.1958 16.5897 42.1468 18.5254 42.1468 19.138V21.0003ZM50.4778 21.0003V13.6494H57.0936V14.8745H51.7029V16.5897H55.8684V17.8149H51.7029V19.7751H57.3386V21.0003H50.4778ZM62.3862 18.3049H60.279V21.0003H58.8088V13.6494H63.5624C65.1306 13.6494 66.1107 14.6295 66.1107 16.0261C66.1107 17.3491 65.1551 18.1089 63.9789 18.2804L66.1842 21.0245H64.469L62.3862 18.3049ZM63.4154 17.0798C64.273 17.0798 64.763 16.6387 64.763 16.0016C64.763 15.2913 64.3465 14.8745 63.5624 14.8745H60.279V17.0798H63.4154ZM69.002 19.285L68.1444 21.0003H66.6497L70.2517 13.6494H71.6971L75.2991 21.0003H73.8289L72.9713 19.285H69.002ZM69.5656 18.0599H72.408L70.9868 15.0705L69.5656 18.0599ZM76.4509 21.0003V13.6494H77.6761V19.7751H82.5767V21.0003H76.4509ZM83.5568 21.0003V13.6494H90.4176V14.8745H85.027V16.5897H89.1925V17.8149H85.027V19.7751H90.6627V21.0003H83.5568Z" fill="#C0C0CF"/>
<path d="M0 3.60327H17.8872V12.6694H0V3.60327Z" fill="#DCDCE4"/>
<path d="M0 12.4243H17.8872V21.2454H0V12.4243Z" fill="#A5A5BA"/>
<path d="M3.18359 11.9346H14.7V12.9147H3.18359V11.9346Z" fill="#15148C"/>
</g>
<defs>
<clipPath id="clip0_709_13683">
<rect width="90.661" height="24.4422" fill="white" transform="translate(0 0.190918)"/>
</clipPath>
</defs>
</svg>
