<svg width="94" height="16" viewBox="0 0 94 16" fill="none" xmlns="http://www.w3.org/2000/svg">
<path d="M11.6213 15.0875C10.3873 14.3147 9.47856 11.6475 9.47856 8.47887C9.47856 8.36258 9.47905 8.24777 9.48199 8.13345L9.48347 8.13492C6.05182 7.59569 3.57204 6.11783 3.50874 4.3706L3.49844 4.39072C2.65844 5.43435 2.17907 6.64087 2.17907 7.92639C2.17907 11.7093 6.33149 14.8088 11.5987 15.0831L11.6213 15.0875ZM0.592773 8.20263C0.592773 3.96974 5.86046 0.537598 12.3587 0.537598C18.857 0.537598 24.1246 3.96974 24.1246 8.20263C24.1246 12.4355 18.857 15.8677 12.3587 15.8677C5.86046 15.8677 0.592773 12.4355 0.592773 8.20263ZM12.3587 1.64354C13.6133 1.64354 14.68 3.5463 15.0755 6.20173L15.0769 6.19781C17.5175 5.81804 19.2264 4.94124 19.2264 3.92165C19.2264 2.55272 16.1515 1.44482 12.3587 1.44482C8.56594 1.44482 5.49099 2.55321 5.49099 3.92165C5.49099 4.94124 7.19946 5.81755 9.64048 6.19781L9.64195 6.20173C10.0374 3.54679 11.1046 1.64354 12.3587 1.64354ZM13.1182 15.0831C18.3854 14.8088 22.5384 11.7093 22.5384 7.92639C22.5384 6.64087 22.0585 5.43435 21.219 4.39072L21.2087 4.3706C21.1454 6.11783 18.6661 7.59569 15.234 8.13492L15.2354 8.13345C15.2379 8.24777 15.2389 8.36258 15.2389 8.47887C15.2389 11.6475 14.3292 14.3147 13.0962 15.0875L13.1182 15.0831ZM12.3587 6.39898C12.921 6.39898 13.4671 6.37494 13.9897 6.32881L13.9892 6.3293C13.7291 4.62722 13.0971 3.42609 12.3587 3.42609C11.6203 3.42609 10.9888 4.62722 10.7283 6.3293L10.7278 6.32881C11.2503 6.37494 11.7964 6.39898 12.3587 6.39898ZM12.3587 12.7019C13.3032 12.7019 14.0736 10.7364 14.1148 8.27132L14.1197 8.27279C12.9482 8.38074 11.7692 8.38074 10.5977 8.27279L10.6031 8.27132C10.6439 10.7369 11.4142 12.7019 12.3587 12.7019ZM60.6305 8.20263C60.6305 4.96724 63.2535 2.34468 66.4884 2.34468C69.7248 2.34468 72.3473 4.96773 72.3473 8.20263C72.3473 11.4385 69.7243 14.0606 66.4884 14.0606C63.2535 14.0606 60.6305 11.438 60.6305 8.20263ZM66.4884 11.9125C68.2955 11.9125 69.7601 10.2511 69.7601 8.20214C69.7601 6.15365 68.2955 4.4918 66.4884 4.4918C64.6823 4.4918 63.2182 6.15316 63.2182 8.20214C63.2182 10.2511 64.6828 11.9125 66.4884 11.9125ZM78.9947 4.78521V13.7946H76.5267V4.78521H76.5351H73.0833V2.748H82.4382V4.78472H78.9947V4.78521ZM85.4238 11.3095L85.4214 11.3119L84.4744 13.7951H81.5918L86.149 2.74849H89.221L93.7787 13.7951H90.8956L89.9486 11.3119L89.9462 11.3095H87.6857H85.4238ZM87.6857 9.44497H89.2387L89.2377 9.44546L87.696 5.40245H87.6744L86.1318 9.44546L86.1313 9.44497H87.6857ZM33.4947 4.78521V13.7946H31.0262V4.78521H31.0346H27.5823V2.748H36.9376V4.78472H33.4947V4.78521ZM37.5696 8.20263C37.5696 4.96724 40.1927 2.34468 43.4285 2.34468C46.6639 2.34468 49.287 4.96773 49.287 8.20263C49.287 11.4385 46.6639 14.0606 43.4285 14.0606C40.1927 14.0606 37.5696 11.438 37.5696 8.20263ZM43.4285 11.9125C45.2346 11.9125 46.6997 10.2511 46.6997 8.20214C46.6997 6.15365 45.2351 4.4918 43.4285 4.4918C41.6219 4.4918 40.1573 6.15316 40.1573 8.20214C40.1573 10.2511 41.6219 11.9125 43.4285 11.9125ZM54.9585 13.7946H56.2101V9.60002L60.5161 2.748H57.634L54.9585 7.39108L52.2834 2.748H49.4003L53.7068 9.60002V13.7941H54.9585V13.7946Z" fill="#C0C0CF"/>
</svg>
