<svg width="103" height="26" viewBox="0 0 103 26" fill="none" xmlns="http://www.w3.org/2000/svg">
<g clip-path="url(#clip0_709_13679)">
<path d="M90.3496 9.18285C90.9223 9.18285 91.3937 8.88507 91.4574 8.50035L92.0228 2.10554C92.0228 1.47348 91.2824 0.95459 90.3514 0.95459C89.4213 0.95459 88.6816 1.47348 88.6816 2.10565L89.2467 8.50035C89.3088 8.88495 89.7803 9.18285 90.3515 9.18285H90.3496ZM86.8934 11.1802C87.1807 10.6849 87.159 10.1281 86.8562 9.88074L81.6001 6.19366C81.0536 5.87717 80.2342 6.25812 79.7692 7.06463C79.3025 7.87011 79.3852 8.76972 79.9302 9.08632L85.7504 11.7962C86.1142 11.9311 86.6103 11.6715 86.8953 11.1765L86.8934 11.1802ZM93.8088 11.1768C94.0956 11.6719 94.5892 11.9315 94.9534 11.7966L100.773 9.08667C101.322 8.77018 101.4 7.87046 100.938 7.06497C100.47 6.25926 99.6493 5.87751 99.1043 6.194L93.8478 9.88108C93.5473 10.1281 93.525 10.6853 93.8106 11.1806L93.8088 11.1768ZM90.3496 17.1709C90.9223 17.1709 91.3937 17.4662 91.4574 17.8513L92.0228 24.2452C92.0228 24.8792 91.2824 25.3969 90.3514 25.3969C89.4213 25.3969 88.6816 24.8792 88.6816 24.2452L89.2467 17.8513C89.3088 17.4662 89.7803 17.1709 90.3515 17.1709H90.3496ZM93.8088 15.1731C94.0956 14.6767 94.5892 14.4193 94.9534 14.5557L100.773 17.2638C101.322 17.5806 101.4 18.4812 100.938 19.2873C100.47 20.0904 99.6493 20.4732 99.1043 20.1572L93.8478 16.4735C93.5473 16.2246 93.525 15.667 93.8106 15.1721H93.8084L93.8088 15.1731ZM86.8934 15.1724C87.1807 15.667 87.159 16.2246 86.8562 16.474L81.6001 20.1575C81.0536 20.4735 80.2342 20.0908 79.7692 19.2877C79.3025 18.4815 79.3852 17.581 79.9302 17.2642L85.7504 14.5561C86.1142 14.4196 86.6103 14.677 86.8953 15.1735H86.8934" fill="#C0C0CF"/>
<path d="M57.1931 16.462C57.1931 16.6583 57.1757 16.8607 57.1219 17.0384C56.899 17.7767 56.1346 18.401 55.1783 18.401C54.3809 18.401 53.7476 17.9481 53.7476 16.9914C53.7476 15.5273 55.3591 15.1229 57.1936 15.1331L57.1931 16.4619V16.462ZM60.0705 13.9105C60.0705 11.4962 59.0389 9.37183 55.5532 9.37183C53.7639 9.37183 52.3438 9.8744 51.5687 10.3223L52.1364 12.2632C52.8448 11.816 53.9738 11.4458 55.0423 11.4458C56.8104 11.4409 57.0999 12.447 57.0999 13.091V13.2434C53.2458 13.2377 50.8095 14.5722 50.8095 17.2908C50.8095 18.952 52.0504 20.5078 54.2074 20.5078C55.5328 20.5078 56.6429 19.9788 57.3072 19.1305H57.3728C57.3728 19.1305 57.8124 20.9722 60.2392 20.2675C60.1126 19.5016 60.071 18.6841 60.071 17.7009L60.0706 13.9105H60.0705ZM0.0195312 6.08395C0.0195312 6.08395 2.53809 16.404 2.94027 18.0788C3.40941 20.0338 4.25494 20.7535 6.69158 20.2675L8.2641 13.8695C8.66285 12.2796 8.92971 11.1459 9.18664 9.53019H9.23137C9.41174 11.1631 9.66765 12.2845 9.99578 13.8748C9.99578 13.8748 10.6356 16.7795 10.9638 18.3047C11.2924 19.8294 12.207 20.791 14.594 20.2675L18.3412 6.0835H15.3166L14.0368 12.2162C13.6927 14.0006 13.3807 15.3965 13.14 17.0286H13.0972C12.8785 15.4109 12.6 14.0719 12.2506 12.333L10.9191 6.0835H7.76723L6.34224 12.1754C5.93892 14.0271 5.56071 15.5217 5.32112 17.0995H5.27754C5.03156 15.6138 4.70412 13.7346 4.34975 11.943C4.34975 11.943 3.50376 7.58551 3.20621 6.0835L0.0195312 6.08395ZM24.0624 16.462C24.0624 16.6583 24.045 16.8607 23.9904 17.0384C23.768 17.7767 23.0031 18.401 22.0468 18.401C21.2493 18.401 20.6169 17.9481 20.6169 16.9914C20.6169 15.5273 22.2279 15.1229 24.0628 15.1331L24.0624 16.4619V16.462ZM26.9395 13.9105C26.9395 11.4962 25.9078 9.37183 22.4228 9.37183C20.6331 9.37183 19.2118 9.8744 18.4372 10.3223L19.0042 12.2632C19.7125 11.816 20.8415 11.4458 21.9103 11.4458C23.6796 11.4409 23.9692 12.447 23.9692 13.091V13.2434C20.1135 13.2377 17.6783 14.5722 17.6783 17.2908C17.6783 18.952 18.9185 20.5078 21.0739 20.5078C22.4011 20.5078 23.5106 19.9788 24.1757 19.1305H24.2405C24.2405 19.1305 24.6814 20.9722 27.1076 20.2675C26.9808 19.5016 26.9395 18.6841 26.9395 17.7009V13.9105ZM31.7411 17.2567V6.08395H28.8603V20.268H31.7411V17.2567ZM69.4272 6.08395V16.5473C69.4272 17.9905 69.6993 19.0006 70.2795 19.6187C70.7879 20.1592 71.6232 20.509 72.6249 20.509C73.4769 20.509 74.3146 20.3464 74.7099 20.1998L74.6727 17.9492C74.3786 18.0211 74.0409 18.0793 73.5786 18.0793C72.5969 18.0793 72.2687 17.4504 72.2687 16.1554V12.1519H74.7773V9.43766H72.2687V6.08395H69.4272ZM61.9915 9.61245V20.268H64.9632V14.8122C64.9632 14.5172 64.981 14.2603 65.0277 14.0253C65.2475 12.8818 66.1214 12.1519 67.3768 12.1519C67.7209 12.1519 67.9672 12.1893 68.2341 12.2272V9.43766C68.0101 9.39305 67.8581 9.37218 67.5795 9.37218C66.4706 9.37218 65.2088 10.0878 64.6793 11.6227H64.599V9.61245H61.9915ZM33.7582 9.61245V20.268H36.6535V14.0196C36.6535 13.7263 36.688 13.4163 36.7895 13.1475C37.0295 12.5184 37.615 11.7816 38.5493 11.7816C39.7181 11.7816 40.2639 12.7692 40.2639 14.1947V20.2672H43.1569V13.9427C43.1569 13.6629 43.1952 13.3257 43.2779 13.079C43.5154 12.363 44.1461 11.7808 45.0148 11.7808C46.1992 11.7808 46.7677 12.7511 46.7677 14.4289V20.2669H49.6627V13.9907C49.6627 10.6813 47.9821 9.37115 46.0848 9.37115C45.2453 9.37115 44.5819 9.58142 43.9821 9.94902C43.4783 10.2593 43.0265 10.6991 42.6324 11.277H42.5896C42.1321 10.1287 41.0556 9.37172 39.6529 9.37172C37.8508 9.37172 37.0409 10.2852 36.5496 11.0599H36.5065V9.61211H33.7582" fill="#C0C0CF"/>
<path d="M102.233 19.75H102.276C102.334 19.75 102.372 19.726 102.372 19.6904C102.372 19.6499 102.337 19.6279 102.283 19.6279C102.264 19.6279 102.245 19.6317 102.233 19.6317V19.751V19.7498L102.233 19.75ZM102.226 20.0372H102.072V19.5358C102.107 19.529 102.188 19.5168 102.293 19.5168C102.406 19.5168 102.457 19.5327 102.494 19.5578C102.525 19.5797 102.548 19.6172 102.548 19.6677C102.548 19.7192 102.501 19.7627 102.431 19.7818V19.7882C102.488 19.8034 102.519 19.8447 102.535 19.9171C102.551 19.9894 102.56 20.019 102.57 20.0376H102.396C102.381 20.019 102.372 19.9746 102.361 19.9303C102.352 19.8796 102.328 19.8541 102.276 19.8541H102.226L102.226 20.0372ZM102.29 19.3724C102.069 19.3724 101.902 19.5525 101.902 19.782C101.902 20.0056 102.069 20.1881 102.296 20.1881C102.523 20.1918 102.69 20.0058 102.69 19.7784C102.69 19.552 102.523 19.3724 102.293 19.3724H102.29ZM102.3 19.2363C102.608 19.2363 102.853 19.4789 102.853 19.7783C102.853 20.0812 102.608 20.3241 102.295 20.3241C101.983 20.3241 101.734 20.0808 101.734 19.7784C101.734 19.4789 101.983 19.2364 102.295 19.2364H102.299" fill="#C0C0CF"/>
</g>
<defs>
<clipPath id="clip0_709_13679">
<rect width="102.871" height="24.4422" fill="white" transform="translate(0 0.95459)"/>
</clipPath>
</defs>
</svg>
